<svg width="83" height="34" viewBox="0 0 83 34" fill="none" xmlns="http://www.w3.org/2000/svg">
<path d="M51.0748 3.728C60.6915 1.97069 69.0957 1.4583 74.7259 2.26085C77.5509 2.66353 79.5074 3.37393 80.6204 4.2847C81.1684 4.73312 81.4976 5.21799 81.643 5.72898C81.7882 6.23909 81.7634 6.8212 81.5246 7.48783C81.0383 8.84524 79.7058 10.4357 77.5241 12.1661C75.3563 13.8855 72.4046 15.7008 68.7676 17.5235C61.4944 21.1684 52.0296 24.568 42.1468 27.08C32.2628 29.5923 22.6633 31.0383 15.1479 31.1546C11.3887 31.2128 8.30128 30.9359 5.98874 30.3648C3.65203 29.7878 2.21241 28.9366 1.59502 27.9379C1.01359 26.9974 1.1017 25.8077 2.08091 24.3229C3.0644 22.8316 4.89313 21.1425 7.56614 19.3401C12.9035 15.7414 21.0924 12.036 30.6111 8.92954" stroke="#00F0FF"/>
<path d="M44.9943 16.432C47.0103 16.816 48.6903 17.808 50.0343 19.408C51.3783 20.976 52.0503 22.832 52.0503 24.976C52.0503 27.632 51.1383 29.808 49.3143 31.504C47.4903 33.168 44.8343 34 41.3463 34H31.6503V0.207997H41.3463C44.7063 0.207997 47.2023 0.975998 48.8343 2.512C50.4663 4.016 51.2823 6 51.2823 8.464C51.2823 10.704 50.6743 12.496 49.4583 13.84C48.2743 15.184 46.7863 16.048 44.9943 16.432ZM32.6103 15.952H41.6343C44.4503 15.952 46.5943 15.296 48.0663 13.984C49.5703 12.64 50.3223 10.8 50.3223 8.464C50.3223 6.224 49.5863 4.448 48.1143 3.136C46.6423 1.824 44.3863 1.168 41.3463 1.168H32.6103V15.952ZM41.3463 33.04C44.4183 33.04 46.8023 32.32 48.4983 30.88C50.2263 29.44 51.0903 27.472 51.0903 24.976C51.0903 22.512 50.2103 20.56 48.4503 19.12C46.6903 17.648 44.2903 16.912 41.2503 16.912H32.6103V33.04H41.3463Z" fill="white"/>
</svg>
